<svg width="255" height="28" viewBox="0 0 255 28" fill="none" xmlns="http://www.w3.org/2000/svg">
<path d="M1.76989 6.63636H7.07955L12.6875 20.3182H12.9261L18.5341 6.63636H23.8438V27H19.6676V13.7457H19.4986L14.2287 26.9006H11.3849L6.11506 13.696H5.94602V27H1.76989V6.63636ZM27.3114 27V11.7273H31.5472V27H27.3114ZM29.4393 9.75852C28.8095 9.75852 28.2693 9.54972 27.8185 9.1321C27.3744 8.70786 27.1523 8.20076 27.1523 7.61079C27.1523 7.02746 27.3744 6.52699 27.8185 6.10938C28.2693 5.68513 28.8095 5.47301 29.4393 5.47301C30.069 5.47301 30.6059 5.68513 31.0501 6.10938C31.5008 6.52699 31.7262 7.02746 31.7262 7.61079C31.7262 8.20076 31.5008 8.70786 31.0501 9.1321C30.6059 9.54972 30.069 9.75852 29.4393 9.75852ZM41.8409 27.2983C40.2765 27.2983 38.9309 26.9669 37.804 26.304C36.6837 25.6345 35.822 24.7064 35.2188 23.5199C34.6222 22.3333 34.3239 20.9678 34.3239 19.4233C34.3239 17.8589 34.6255 16.4867 35.2287 15.3068C35.8385 14.1203 36.7036 13.1955 37.8239 12.5327C38.9441 11.8632 40.2765 11.5284 41.821 11.5284C43.1534 11.5284 44.3201 11.7704 45.321 12.2543C46.322 12.7382 47.1141 13.4176 47.6974 14.2926C48.2808 15.1676 48.6023 16.1951 48.6619 17.375H44.6648C44.5521 16.6127 44.2538 15.9995 43.7699 15.5355C43.2926 15.0649 42.6662 14.8295 41.8906 14.8295C41.2344 14.8295 40.661 15.0085 40.1705 15.3665C39.6866 15.7178 39.3087 16.2315 39.0369 16.9077C38.7652 17.5838 38.6293 18.4025 38.6293 19.3636C38.6293 20.3381 38.7618 21.1667 39.027 21.8494C39.2988 22.5322 39.6799 23.0526 40.1705 23.4105C40.661 23.7685 41.2344 23.9474 41.8906 23.9474C42.3745 23.9474 42.8087 23.848 43.1932 23.6491C43.5843 23.4503 43.9058 23.1619 44.1577 22.7841C44.4162 22.3996 44.5852 21.9389 44.6648 21.402H48.6619C48.5956 22.5687 48.2775 23.5961 47.7074 24.4844C47.1439 25.366 46.3651 26.0554 45.3707 26.5526C44.3764 27.0497 43.1998 27.2983 41.8409 27.2983ZM55.6097 18.1705V27H51.3739V6.63636H55.4904V14.4219H55.6694C56.0141 13.5204 56.5709 12.8144 57.3398 12.304C58.1088 11.7869 59.0733 11.5284 60.2333 11.5284C61.2939 11.5284 62.2186 11.7604 63.0075 12.2244C63.8029 12.6818 64.4194 13.3414 64.8569 14.2031C65.301 15.0582 65.5198 16.0824 65.5131 17.2756V27H61.2773V18.0312C61.284 17.09 61.0453 16.3575 60.5614 15.8338C60.0842 15.3101 59.4147 15.0483 58.5529 15.0483C57.9762 15.0483 57.4658 15.1709 57.0217 15.4162C56.5842 15.6615 56.2395 16.0194 55.9876 16.4901C55.7423 16.9541 55.6164 17.5142 55.6097 18.1705ZM73.2017 27.2884C72.2273 27.2884 71.3589 27.1193 70.5966 26.7812C69.8343 26.4366 69.2311 25.9295 68.7869 25.2599C68.3494 24.5838 68.1307 23.742 68.1307 22.7344C68.1307 21.8859 68.2865 21.1733 68.598 20.5966C68.9096 20.0199 69.3338 19.5559 69.8707 19.2045C70.4077 18.8532 71.0175 18.5881 71.7003 18.4091C72.3897 18.2301 73.1122 18.1042 73.8679 18.0312C74.7562 17.9384 75.4721 17.8523 76.0156 17.7727C76.5592 17.6866 76.9536 17.5606 77.1989 17.3949C77.4441 17.2292 77.5668 16.9839 77.5668 16.6591V16.5994C77.5668 15.9697 77.3679 15.4825 76.9702 15.1378C76.5791 14.7931 76.0223 14.6207 75.2997 14.6207C74.5374 14.6207 73.9309 14.7898 73.4801 15.1278C73.0294 15.4593 72.7311 15.8769 72.5852 16.3807L68.6676 16.0625C68.8665 15.1345 69.2576 14.3324 69.8409 13.6562C70.4242 12.9735 71.1766 12.4498 72.098 12.0852C73.026 11.714 74.0999 11.5284 75.3196 11.5284C76.1681 11.5284 76.9801 11.6278 77.7557 11.8267C78.5379 12.0256 79.2306 12.3338 79.8338 12.7514C80.4437 13.169 80.9242 13.706 81.2756 14.3622C81.6269 15.0118 81.8026 15.7907 81.8026 16.6989V27H77.7855V24.8821H77.6662C77.4209 25.3594 77.0928 25.7803 76.6818 26.1449C76.2708 26.5028 75.777 26.7846 75.2003 26.9901C74.6236 27.1889 73.9574 27.2884 73.2017 27.2884ZM74.4148 24.3651C75.0379 24.3651 75.5881 24.2424 76.0653 23.9972C76.5426 23.7453 76.9171 23.4072 77.1889 22.983C77.4607 22.5587 77.5966 22.0781 77.5966 21.5412V19.9205C77.464 20.0066 77.2817 20.0862 77.0497 20.1591C76.8243 20.2254 76.5691 20.2884 76.2841 20.348C75.9991 20.401 75.714 20.4508 75.429 20.4972C75.1439 20.5369 74.8854 20.5734 74.6534 20.6065C74.1563 20.6795 73.7221 20.7955 73.3509 20.9545C72.9796 21.1136 72.6913 21.3291 72.4858 21.6009C72.2803 21.866 72.1776 22.1974 72.1776 22.5952C72.1776 23.1719 72.3864 23.6127 72.804 23.9176C73.2282 24.2159 73.7652 24.3651 74.4148 24.3651ZM92.049 27.2983C90.478 27.2983 89.1257 26.9801 87.9922 26.3438C86.8653 25.7008 85.9969 24.7926 85.3871 23.6193C84.7772 22.4394 84.4723 21.044 84.4723 19.4332C84.4723 17.8622 84.7772 16.4834 85.3871 15.2969C85.9969 14.1103 86.8554 13.1856 87.9624 12.5227C89.076 11.8598 90.3819 11.5284 91.88 11.5284C92.8875 11.5284 93.8255 11.6908 94.6939 12.0156C95.5689 12.3338 96.3312 12.8144 96.9808 13.4574C97.6371 14.1004 98.1475 14.9091 98.5121 15.8835C98.8767 16.8513 99.0589 17.9848 99.0589 19.2841V20.4474H86.1626V17.8224H95.0717C95.0717 17.2126 94.9392 16.6723 94.674 16.2017C94.4089 15.7311 94.041 15.3632 93.5703 15.098C93.1063 14.8262 92.5661 14.6903 91.9496 14.6903C91.3066 14.6903 90.7365 14.8395 90.2393 15.1378C89.7488 15.4295 89.3643 15.8239 89.0859 16.321C88.8075 16.8116 88.665 17.3584 88.6584 17.9616V20.4574C88.6584 21.2131 88.7976 21.866 89.076 22.4162C89.361 22.9664 89.7621 23.3906 90.2791 23.6889C90.7962 23.9872 91.4093 24.1364 92.1186 24.1364C92.5893 24.1364 93.0201 24.0701 93.4112 23.9375C93.8023 23.8049 94.1371 23.6061 94.4155 23.3409C94.6939 23.0758 94.906 22.7509 95.0518 22.3665L98.9695 22.625C98.7706 23.5663 98.3629 24.3883 97.7464 25.0909C97.1366 25.7869 96.3478 26.3305 95.38 26.7216C94.4188 27.1061 93.3085 27.2983 92.049 27.2983ZM106.059 6.63636V27H101.823V6.63636H106.059ZM109.532 27V6.63636H123.015V10.1861H113.837V15.0384H122.12V18.5881H113.837V27H109.532ZM125.585 27V11.7273H129.691V14.392H129.85C130.129 13.4441 130.596 12.7282 131.252 12.2443C131.909 11.7538 132.664 11.5085 133.52 11.5085C133.732 11.5085 133.96 11.5218 134.206 11.5483C134.451 11.5748 134.666 11.6113 134.852 11.6577V15.4162C134.653 15.3565 134.378 15.3035 134.027 15.2571C133.675 15.2107 133.354 15.1875 133.062 15.1875C132.439 15.1875 131.882 15.3234 131.392 15.5952C130.908 15.8603 130.523 16.2315 130.238 16.7088C129.96 17.1861 129.821 17.7363 129.821 18.3594V27H125.585ZM143.291 27.2983C141.72 27.2983 140.368 26.9801 139.234 26.3438C138.107 25.7008 137.239 24.7926 136.629 23.6193C136.019 22.4394 135.714 21.044 135.714 19.4332C135.714 17.8622 136.019 16.4834 136.629 15.2969C137.239 14.1103 138.098 13.1856 139.205 12.5227C140.318 11.8598 141.624 11.5284 143.122 11.5284C144.13 11.5284 145.068 11.6908 145.936 12.0156C146.811 12.3338 147.573 12.8144 148.223 13.4574C148.879 14.1004 149.39 14.9091 149.754 15.8835C150.119 16.8513 150.301 17.9848 150.301 19.2841V20.4474H137.405V17.8224H146.314C146.314 17.2126 146.181 16.6723 145.916 16.2017C145.651 15.7311 145.283 15.3632 144.812 15.098C144.348 14.8262 143.808 14.6903 143.192 14.6903C142.549 14.6903 141.979 14.8395 141.482 15.1378C140.991 15.4295 140.607 15.8239 140.328 16.321C140.05 16.8116 139.907 17.3584 139.901 17.9616V20.4574C139.901 21.2131 140.04 21.866 140.318 22.4162C140.603 22.9664 141.004 23.3906 141.521 23.6889C142.038 23.9872 142.652 24.1364 143.361 24.1364C143.831 24.1364 144.262 24.0701 144.653 23.9375C145.045 23.8049 145.379 23.6061 145.658 23.3409C145.936 23.0758 146.148 22.7509 146.294 22.3665L150.212 22.625C150.013 23.5663 149.605 24.3883 148.989 25.0909C148.379 25.7869 147.59 26.3305 146.622 26.7216C145.661 27.1061 144.551 27.2983 143.291 27.2983ZM153.065 27V11.7273H157.301V27H153.065ZM155.193 9.75852C154.563 9.75852 154.023 9.54972 153.572 9.1321C153.128 8.70786 152.906 8.20076 152.906 7.61079C152.906 7.02746 153.128 6.52699 153.572 6.10938C154.023 5.68513 154.563 5.47301 155.193 5.47301C155.823 5.47301 156.36 5.68513 156.804 6.10938C157.255 6.52699 157.48 7.02746 157.48 7.61079C157.48 8.20076 157.255 8.70786 156.804 9.1321C156.36 9.54972 155.823 9.75852 155.193 9.75852ZM160.694 27V11.7273H164.801V14.392H164.96C165.238 13.4441 165.706 12.7282 166.362 12.2443C167.018 11.7538 167.774 11.5085 168.629 11.5085C168.841 11.5085 169.07 11.5218 169.315 11.5483C169.56 11.5748 169.776 11.6113 169.961 11.6577V15.4162C169.762 15.3565 169.487 15.3035 169.136 15.2571C168.785 15.2107 168.463 15.1875 168.172 15.1875C167.548 15.1875 166.992 15.3234 166.501 15.5952C166.017 15.8603 165.633 16.2315 165.348 16.7088C165.069 17.1861 164.93 17.7363 164.93 18.3594V27H160.694ZM178.401 27.2983C176.83 27.2983 175.477 26.9801 174.344 26.3438C173.217 25.7008 172.348 24.7926 171.739 23.6193C171.129 22.4394 170.824 21.044 170.824 19.4332C170.824 17.8622 171.129 16.4834 171.739 15.2969C172.348 14.1103 173.207 13.1856 174.314 12.5227C175.428 11.8598 176.733 11.5284 178.232 11.5284C179.239 11.5284 180.177 11.6908 181.045 12.0156C181.92 12.3338 182.683 12.8144 183.332 13.4574C183.989 14.1004 184.499 14.9091 184.864 15.8835C185.228 16.8513 185.411 17.9848 185.411 19.2841V20.4474H172.514V17.8224H181.423C181.423 17.2126 181.291 16.6723 181.026 16.2017C180.76 15.7311 180.393 15.3632 179.922 15.098C179.458 14.8262 178.918 14.6903 178.301 14.6903C177.658 14.6903 177.088 14.8395 176.591 15.1378C176.1 15.4295 175.716 15.8239 175.438 16.321C175.159 16.8116 175.017 17.3584 175.01 17.9616V20.4574C175.01 21.2131 175.149 21.866 175.428 22.4162C175.713 22.9664 176.114 23.3906 176.631 23.6889C177.148 23.9872 177.761 24.1364 178.47 24.1364C178.941 24.1364 179.372 24.0701 179.763 23.9375C180.154 23.8049 180.489 23.6061 180.767 23.3409C181.045 23.0758 181.258 22.7509 181.403 22.3665L185.321 22.625C185.122 23.5663 184.714 24.3883 184.098 25.0909C183.488 25.7869 182.699 26.3305 181.732 26.7216C180.77 27.1061 179.66 27.2983 178.401 27.2983Z" fill="#5FC7DA"/>
<circle cx="214" cy="14" r="5" fill="#D9D9D9"/>
<rect x="228" y="19" width="27" height="7" fill="#9169F3"/>
</svg>
