<svg width="150" height="150" viewBox="0 0 150 150" fill="none" xmlns="http://www.w3.org/2000/svg">
<path d="M135.084 14.4082V95.0648H8.44747V14.4082C8.44747 11.0252 11.1897 8.28247 14.5732 8.28247H128.959C132.342 8.28276 135.084 11.025 135.084 14.4082ZM141.946 99.631V98.1278C141.946 96.4362 140.575 95.0651 138.883 95.0651H4.63331C2.94171 95.0651 1.57062 96.4365 1.57062 98.1278V99.631C1.57062 100.443 1.89347 101.222 2.46769 101.797L6.79923 106.128C7.37345 106.702 8.15275 107.025 8.96486 107.025H134.552C135.364 107.025 136.143 106.702 136.717 106.128L141.049 101.797C141.623 101.222 141.946 100.443 141.946 99.631Z" fill="#A7B1B3"/>
<path opacity="0.5" d="M16.8305 107.029H8.95928C8.14805 107.029 7.36699 106.707 6.8001 106.125L2.4665 101.792C1.8999 101.225 1.56299 100.444 1.56299 99.6324V98.1315C1.56299 96.4317 2.94111 95.0688 4.62568 95.0688H12.4969C10.7971 95.0688 9.43418 96.4317 9.43418 98.1315V99.6324C9.43418 100.444 9.75586 101.225 10.3225 101.792L14.6563 106.125C15.2382 106.707 16.0189 107.029 16.8305 107.029Z" fill="white"/>
<path opacity="0.15" d="M141.938 98.132V99.6329C141.938 100.444 141.617 101.225 141.05 101.792L136.717 106.126C136.15 106.708 135.369 107.029 134.557 107.029H127.696C128.508 107.029 129.274 106.708 129.855 106.126L134.189 101.792C134.756 101.225 135.077 100.445 135.077 99.6329V98.132C135.077 96.4322 133.714 95.0693 132.015 95.0693H138.875C140.575 95.0693 141.938 96.4322 141.938 98.132Z" fill="black"/>
<path d="M125.618 20.0663V83.2852C125.618 84.9258 124.289 86.2538 122.649 86.2538H20.8831C19.2425 86.2538 17.9145 84.9255 17.9145 83.2852V20.0663C17.9145 18.4257 19.2425 17.0977 20.8831 17.0977H122.649C124.289 17.0977 125.618 18.4257 125.618 20.0663Z" fill="#A5E0FA"/>
<path opacity="0.5" d="M121.571 17.0977L52.3986 86.2538H20.8831C19.2425 86.2538 17.9145 84.9255 17.9145 83.2852V59.0508L59.8831 17.0977H121.571Z" fill="white"/>
<path opacity="0.5" d="M125.618 26.7849V44.2851L83.649 86.2538H66.1488L125.618 26.7849Z" fill="white"/>
<path d="M148.43 77.0354V128.957H105.993V77.0354C105.993 75.2228 107.461 73.7383 109.29 73.7383H145.133C146.962 73.7383 148.43 75.2228 148.43 77.0354Z" fill="#A5E0FA"/>
<path opacity="0.5" d="M148.43 77.0354V88.801L108.274 128.957H105.993V96.0818L128.336 73.7383H145.133C146.962 73.7383 148.43 75.2228 148.43 77.0354Z" fill="white"/>
<path opacity="0.5" d="M148.43 96.6445V106.613L126.086 128.957H116.118L148.43 96.6445Z" fill="white"/>
<path d="M105.985 128.954V138.417C105.985 140.24 107.463 141.718 109.286 141.718H145.137C146.96 141.718 148.438 140.24 148.438 138.417V128.954H105.985Z" fill="#A7B1B3"/>
<path opacity="0.15" d="M148.429 128.955V138.411C148.429 140.243 146.961 141.711 145.129 141.711H139.733C141.565 141.711 143.033 140.243 143.033 138.411V128.955H148.429Z" fill="black"/>
<path d="M128.953 6.71924H14.5781C10.3392 6.71924 6.89092 10.1675 6.89092 14.4064V93.5004H4.64092C2.08213 93.5004 0 95.5749 0 98.1252V99.6249C0 100.84 0.497461 102.035 1.36406 102.901L5.69326 107.231C6.56074 108.097 7.75488 108.594 8.96924 108.594H104.423C104.423 125.179 104.423 121.549 104.423 138.417C104.423 141.099 106.604 143.28 109.286 143.28H145.137C147.818 143.28 150 141.099 150 138.417C150 116.692 150 100.274 150 77.0408C150 74.3593 147.819 72.1781 145.137 72.1781H136.641V14.4064C136.641 10.1678 133.192 6.71924 128.953 6.71924ZM104.423 105.469H8.96924C8.57607 105.469 8.1873 105.305 7.90195 105.021L3.57393 100.693C3.28857 100.407 3.12539 100.018 3.12539 99.6255V98.1258C3.12539 97.2987 3.80537 96.6261 4.64121 96.6261H8.45361H104.423V105.469ZM104.423 93.5004H10.016V14.4064C10.016 11.891 12.063 9.84404 14.5784 9.84404H128.954C131.469 9.84404 133.516 11.891 133.516 14.4064V72.1784H127.188V20.0628C127.188 17.5641 125.155 15.5317 122.656 15.5317H20.8755C18.3768 15.5317 16.3436 17.5641 16.3436 20.0628V83.2813C16.3436 85.7801 18.3768 87.8124 20.8755 87.8124H104.423V93.5004ZM104.423 77.0417V84.6879H20.8755C20.0994 84.6879 19.4687 84.0568 19.4687 83.2816V20.0628C19.4687 19.2876 20.0997 18.6565 20.8755 18.6565H122.656C123.432 18.6565 124.063 19.2876 124.063 20.0628V72.1784H109.286C106.604 72.1784 104.423 74.3602 104.423 77.0417ZM146.875 138.418C146.875 139.376 146.095 140.156 145.137 140.156H109.286C108.328 140.156 107.548 139.376 107.548 138.418V130.516H146.875V138.418H146.875ZM145.137 75.3038C146.095 75.3038 146.875 76.0837 146.875 77.0417V127.391H107.548V77.0417C107.548 76.0834 108.328 75.3038 109.286 75.3038H145.137Z" fill="black"/>
<path d="M125.475 136.899H128.948C129.81 136.899 130.51 136.199 130.51 135.336C130.51 134.473 129.811 133.773 128.948 133.773H125.475C124.613 133.773 123.913 134.473 123.913 135.336C123.913 136.199 124.613 136.899 125.475 136.899Z" fill="black"/>
</svg>
