<svg width="150" height="132" viewBox="0 0 150 132" fill="none" xmlns="http://www.w3.org/2000/svg">
<path fill-rule="evenodd" clip-rule="evenodd" d="M144.228 47.5757C144.228 44.448 141.688 41.9082 138.561 41.9082H43.7565C40.6285 41.9082 38.089 44.448 38.089 47.5757V120.744C38.089 123.872 40.6285 126.411 43.7565 126.411H138.561C141.688 126.411 144.228 123.872 144.228 120.744V47.5757Z" fill="#CCE6FF" fill-opacity="0.161"/>
<path fill-rule="evenodd" clip-rule="evenodd" d="M136.076 37.6255C136.076 34.4974 133.537 31.958 130.409 31.958H36.7273C33.5992 31.958 31.0598 34.4974 31.0598 37.6255V109.875C31.0598 113.003 33.5992 115.542 36.7273 115.542H130.409C133.537 115.542 136.076 113.003 136.076 109.875V37.6255Z" fill="url(#paint0_linear_18_178)"/>
<path fill-rule="evenodd" clip-rule="evenodd" d="M36.0378 47.9995H129.95V107.076C129.95 107.942 129.606 108.773 128.994 109.385C128.381 109.998 127.55 110.342 126.684 110.342H40.5283C38.0482 110.342 36.0378 108.331 36.0378 105.851V47.9995Z" fill="white"/>
<mask id="mask0_18_178" style="mask-type:luminance" maskUnits="userSpaceOnUse" x="36" y="47" width="94" height="64">
<path d="M36.0378 47.9995H129.95V107.076C129.95 107.942 129.606 108.773 128.994 109.385C128.381 109.998 127.55 110.342 126.684 110.342H40.5283C38.0482 110.342 36.0378 108.331 36.0378 105.851V47.9995Z" fill="white"/>
</mask>
<g mask="url(#mask0_18_178)">
<path fill-rule="evenodd" clip-rule="evenodd" d="M43.8042 52.5222H119.275V68.1751H43.8042V52.5222ZM44.4038 71.4154H68.5273V84.4405H44.4038V71.4154ZM44.4038 89.7218H95.2919V105.592H44.4038V89.7218ZM98.3535 89.7218H119.084V105.592H98.3535V89.7218ZM72.0102 71.5046H92.932V76.1738H72.0102V71.5046ZM71.8315 79.5033H119.326V84.504H71.8315V79.5033Z" fill="#E5F1FF"/>
</g>
<path d="M48.4413 42.3165C49.9174 42.3165 51.1141 41.1199 51.1141 39.6437C51.1141 38.1676 49.9174 36.9709 48.4413 36.9709C46.9652 36.9709 45.7685 38.1676 45.7685 39.6437C45.7685 41.1199 46.9652 42.3165 48.4413 42.3165Z" fill="#0084FF"/>
<path d="M40.749 42.3165C42.2251 42.3165 43.4218 41.1199 43.4218 39.6437C43.4218 38.1676 42.2251 36.9709 40.749 36.9709C39.2728 36.9709 38.0762 38.1676 38.0762 39.6437C38.0762 41.1199 39.2728 42.3165 40.749 42.3165Z" fill="#55D7FF"/>
<path d="M56.1212 42.3165C57.5973 42.3165 58.794 41.1199 58.794 39.6437C58.794 38.1676 57.5973 36.9709 56.1212 36.9709C54.645 36.9709 53.4484 38.1676 53.4484 39.6437C53.4484 41.1199 54.645 42.3165 56.1212 42.3165Z" fill="#0BBC00"/>
<path fill-rule="evenodd" clip-rule="evenodd" d="M113.611 39.4655C113.611 38.1102 112.511 37.0096 111.155 37.0096H85.4501C84.7989 37.0099 84.1744 37.2687 83.7139 37.7293C83.2534 38.1898 82.9945 38.8143 82.9942 39.4655V39.8607C82.9942 41.216 84.0945 42.3167 85.4501 42.3167H111.155C112.511 42.3167 113.611 41.216 113.611 39.8607V39.4655ZM130.616 39.4451C130.616 38.7891 130.355 38.1601 129.892 37.6963C129.428 37.2325 128.799 36.9717 128.143 36.9714H124.734C124.078 36.9717 123.449 37.2325 122.985 37.6963C122.521 38.1601 122.261 38.7891 122.26 39.4451V39.843C122.261 40.4989 122.521 41.128 122.985 41.5918C123.449 42.0556 124.078 42.3164 124.734 42.3167H128.143C128.799 42.3164 129.428 42.0556 129.892 41.5918C130.355 41.128 130.616 40.4989 130.616 39.843V39.4451Z" fill="#E5F1FF"/>
<path fill-rule="evenodd" clip-rule="evenodd" d="M130.348 29.2053C130.348 26.0776 127.809 23.5378 124.681 23.5378H29.8768C26.7487 23.5378 24.2093 26.0776 24.2093 29.2053V102.374C24.2093 105.502 26.7487 108.041 29.8768 108.041H124.681C127.809 108.041 130.348 105.502 130.348 102.374V29.2053Z" fill="#CCE6FF" fill-opacity="0.161"/>
<path fill-rule="evenodd" clip-rule="evenodd" d="M125.054 24.1538C125.054 21.0257 122.514 18.4863 119.387 18.4863H25.7052C22.5771 18.4863 20.0377 21.0257 20.0377 24.1538V96.4032C20.0377 99.5313 22.5771 102.071 25.7052 102.071H119.387C122.514 102.071 125.054 99.5313 125.054 96.4032V24.1538Z" fill="url(#paint1_linear_18_178)"/>
<path fill-rule="evenodd" clip-rule="evenodd" d="M25.016 34.5278H118.928V93.6044C118.928 94.4705 118.584 95.3011 117.971 95.9136C117.359 96.526 116.528 96.87 115.662 96.87H29.5062C27.0264 96.87 25.016 94.8596 25.016 92.3795V34.5278Z" fill="white"/>
<mask id="mask1_18_178" style="mask-type:luminance" maskUnits="userSpaceOnUse" x="25" y="34" width="94" height="63">
<path d="M25.016 34.5278H118.928V93.6044C118.928 94.4705 118.584 95.3011 117.971 95.9136C117.359 96.526 116.528 96.87 115.662 96.87H29.5062C27.0264 96.87 25.016 94.8596 25.016 92.3795V34.5278Z" fill="white"/>
</mask>
<g mask="url(#mask1_18_178)">
<path fill-rule="evenodd" clip-rule="evenodd" d="M32.782 39.0505H108.253V54.7034H32.782V39.0505ZM33.3816 57.9437H57.5052V70.9688H33.3816V57.9437ZM33.3816 76.2502H84.2698V92.1199H33.3816V76.2502ZM87.3314 76.2502H108.062V92.1199H87.3314V76.2502ZM60.988 58.0333H81.9098V62.7026H60.988V58.0333ZM60.8093 66.032H108.304V71.0327H60.8093V66.032Z" fill="#E5F1FF"/>
</g>
<path d="M37.4191 28.8453C38.8953 28.8453 40.0919 27.6487 40.0919 26.1726C40.0919 24.6964 38.8953 23.4998 37.4191 23.4998C35.943 23.4998 34.7463 24.6964 34.7463 26.1726C34.7463 27.6487 35.943 28.8453 37.4191 28.8453Z" fill="#0084FF"/>
<path d="M29.7268 28.8453C31.203 28.8453 32.3996 27.6487 32.3996 26.1726C32.3996 24.6964 31.203 23.4998 29.7268 23.4998C28.2507 23.4998 27.054 24.6964 27.054 26.1726C27.054 27.6487 28.2507 28.8453 29.7268 28.8453Z" fill="#55D7FF"/>
<path d="M45.099 28.8453C46.5751 28.8453 47.7718 27.6487 47.7718 26.1726C47.7718 24.6964 46.5751 23.4998 45.099 23.4998C43.6228 23.4998 42.4262 24.6964 42.4262 26.1726C42.4262 27.6487 43.6228 28.8453 45.099 28.8453Z" fill="#0BBC00"/>
<path fill-rule="evenodd" clip-rule="evenodd" d="M102.589 25.9938C102.589 24.6385 101.488 23.5379 100.133 23.5379H74.428C73.7767 23.5382 73.1522 23.7971 72.6917 24.2576C72.2312 24.7181 71.9723 25.3426 71.972 25.9938V26.3891C71.972 27.7447 73.0723 28.845 74.428 28.845H100.133C101.488 28.845 102.589 27.7447 102.589 26.3891V25.9938ZM119.594 25.9734C119.594 25.3175 119.333 24.6885 118.869 24.2246C118.406 23.7608 117.776 23.5001 117.121 23.4998H113.712C113.056 23.5002 112.427 23.7609 111.963 24.2247C111.499 24.6886 111.239 25.3175 111.238 25.9734V26.3713C111.239 27.0272 111.499 27.6562 111.963 28.12C112.427 28.5838 113.056 28.8446 113.712 28.845H117.121C117.776 28.8447 118.406 28.584 118.869 28.1201C119.333 27.6563 119.594 27.0273 119.594 26.3713V25.9734Z" fill="#E5F1FF"/>
<path fill-rule="evenodd" clip-rule="evenodd" d="M116.469 17.7752C116.469 14.6471 113.929 12.1077 110.801 12.1077H15.9971C12.869 12.1077 10.3296 14.6471 10.3296 17.7752V90.9431C10.3296 94.0711 12.869 96.6106 15.9971 96.6106H110.801C113.929 96.6106 116.469 94.0711 116.469 90.9431V17.7752Z" fill="#CCE6FF" fill-opacity="0.161"/>
<path fill-rule="evenodd" clip-rule="evenodd" d="M111.175 12.7237C111.175 9.59557 108.635 7.05615 105.507 7.05615H11.8254C8.69736 7.05615 6.15794 9.59557 6.15794 12.7237V84.973C6.15794 88.1011 8.69736 90.6405 11.8254 90.6405H105.507C108.635 90.6405 111.175 88.1011 111.175 84.973V12.7237Z" fill="url(#paint2_linear_18_178)"/>
<path fill-rule="evenodd" clip-rule="evenodd" d="M11.1363 23.0977H105.048V82.1738C105.048 83.04 104.704 83.8708 104.092 84.4833C103.479 85.0957 102.649 85.4398 101.782 85.4398H15.6264C13.1467 85.4398 11.1363 83.4294 11.1363 80.9493V23.0977Z" fill="white"/>
<mask id="mask2_18_178" style="mask-type:luminance" maskUnits="userSpaceOnUse" x="11" y="23" width="95" height="63">
<path d="M11.1363 23.0977H105.048V82.1738C105.048 83.04 104.704 83.8708 104.092 84.4833C103.479 85.0957 102.649 85.4398 101.782 85.4398H15.6264C13.1467 85.4398 11.1363 83.4294 11.1363 80.9493V23.0977Z" fill="white"/>
</mask>
<g mask="url(#mask2_18_178)">
<path fill-rule="evenodd" clip-rule="evenodd" d="M15.3661 27.6204H102.345V43.2733H15.3661V27.6204ZM16.0572 46.5136H43.8593V59.5386H16.0572V46.5136ZM16.0572 64.82H74.7045V80.6898H16.0572V64.82ZM78.2331 64.82H102.124V80.6898H78.2331V64.82ZM47.873 46.6027H71.9849V51.272H47.873V46.6027ZM47.6671 54.6015H102.404V59.6021H47.6671V54.6015Z" fill="#E5F1FF"/>
</g>
<path d="M23.5394 17.4147C25.0156 17.4147 26.2122 16.218 26.2122 14.7419C26.2122 13.2657 25.0156 12.0691 23.5394 12.0691C22.0633 12.0691 20.8666 13.2657 20.8666 14.7419C20.8666 16.218 22.0633 17.4147 23.5394 17.4147Z" fill="#0084FF"/>
<path d="M15.8471 17.4147C17.3232 17.4147 18.5199 16.218 18.5199 14.7419C18.5199 13.2657 17.3232 12.0691 15.8471 12.0691C14.371 12.0691 13.1743 13.2657 13.1743 14.7419C13.1743 16.218 14.371 17.4147 15.8471 17.4147Z" fill="#55D7FF"/>
<path d="M31.2193 17.4147C32.6954 17.4147 33.8921 16.218 33.8921 14.7419C33.8921 13.2657 32.6954 12.0691 31.2193 12.0691C29.7431 12.0691 28.5465 13.2657 28.5465 14.7419C28.5465 16.218 29.7431 17.4147 31.2193 17.4147Z" fill="#0BBC00"/>
<path fill-rule="evenodd" clip-rule="evenodd" d="M88.7093 14.5637C88.7093 13.2084 87.6087 12.1077 86.2534 12.1077H60.5482C59.897 12.108 59.2725 12.3669 58.812 12.8274C58.3515 13.2879 58.0926 13.9124 58.0923 14.5637V14.9589C58.0923 16.3142 59.1926 17.4148 60.5482 17.4148H86.2534C87.6087 17.4148 88.7093 16.3142 88.7093 14.9589V14.5637ZM105.714 14.5436C105.714 13.8875 105.453 13.2583 104.989 12.7944C104.525 12.3305 103.896 12.0698 103.24 12.0696H99.8327C99.1767 12.0699 98.5476 12.3306 98.0837 12.7945C97.6197 13.2585 97.359 13.8876 97.3587 14.5436V14.9404C97.359 15.5965 97.6197 16.2256 98.0836 16.6896C98.5475 17.1536 99.1766 17.4144 99.8327 17.4148H103.24C103.896 17.4145 104.525 17.1537 104.989 16.6897C105.453 16.2257 105.714 15.5965 105.714 14.9404V14.5436Z" fill="#E5F1FF"/>
<path fill-rule="evenodd" clip-rule="evenodd" d="M69.2259 83.1749C68.236 83.1749 67.2835 83.6392 66.9098 84.302C66.6586 84.7489 66.6997 85.2511 67.0356 85.8363C68.2893 88.0161 69.3057 90.4478 70.3825 93.0224C71.5938 95.9188 72.8456 98.9147 74.5961 101.983C76.8023 105.852 77.9123 108.011 78.439 109.098L94.4222 109.095C94.9062 108.211 95.8201 106.605 97.5775 103.559C101.128 97.4018 100.983 91.1147 100.981 91.052L100.967 85.0123C100.967 84.9666 100.97 84.9231 100.973 84.8785C100.982 84.7595 101.183 81.8056 99.1111 81.336C98.9566 81.2995 98.7986 81.2803 98.6399 81.2785C98.4023 81.2785 97.6855 81.2785 97.3009 82.8012C97.231 83.3003 97.1562 83.6128 97.1562 83.6128C96.9729 84.3673 96.2486 84.8517 95.4997 84.7319C94.7452 84.6073 94.2117 83.9196 94.2714 83.1469C94.2763 83.0785 94.3073 82.7298 94.4173 82.2496C94.5945 80.8062 94.4048 79.5768 93.9053 78.9537C93.7096 78.7081 93.3472 78.3783 92.4672 78.3148C91.2903 78.2336 90.4859 78.4425 90.3272 79.9622L90.3846 81.4025C90.416 82.1801 89.8534 82.8526 89.0917 82.9418C88.3334 83.0479 87.6306 82.5148 87.4836 81.7493C87.4659 81.6602 87.3219 80.8746 87.3911 79.8919L87.354 78.9598C87.3487 78.8164 87.3634 78.6729 87.3979 78.5336C87.3979 78.5336 87.6393 77.3963 87.1224 76.7238C86.689 76.1631 85.7573 76.0365 85.0515 76.0285H85.0504C84.116 76.0285 83.2542 76.2624 82.9662 77.9196L83.0467 80.8765C83.0683 81.6481 82.5087 82.3078 81.756 82.3992C80.9996 82.5031 80.3063 81.9821 80.1487 81.2272C80.1348 81.155 79.7962 79.4948 80.0297 77.7333L79.7437 67.2171C79.7417 67.1701 79.7423 67.1231 79.7456 67.0761C79.7649 66.7085 79.6957 65.5984 79.1437 64.9958C78.8577 64.6848 78.439 64.5284 77.8625 64.5212C75.7783 64.5212 75.6574 66.9386 75.6495 67.2148L75.4375 85.352C75.4285 86.0665 74.9233 86.6744 74.2322 86.8025C73.8953 86.8612 73.5484 86.8006 73.2514 86.631C72.9544 86.4613 72.7259 86.1934 72.6053 85.8734C71.6803 83.4382 69.934 83.1749 69.2259 83.1749Z" fill="#70D1FF" fill-opacity="0.529"/>
<path fill-rule="evenodd" clip-rule="evenodd" d="M68.6717 80.1494C67.8317 80.1494 67.0243 80.542 66.7069 81.1019C66.4942 81.4794 66.5286 81.9037 66.8135 82.3983C67.8771 84.2395 68.7393 86.2938 69.6525 88.4689C70.6798 90.9162 71.7419 93.4469 73.2268 96.0385C75.0982 99.3075 76.0394 101.132 76.4864 102.05L90.0435 102.048C90.4538 101.3 91.2291 99.9434 92.72 97.37C95.7314 92.1687 95.6086 86.8571 95.6067 86.8042L95.5953 81.7019C95.5953 81.6634 95.5969 81.6268 95.6003 81.589C95.6078 81.4885 95.7778 78.9929 94.0205 78.5962C93.8895 78.5654 93.7554 78.5492 93.6208 78.5478C93.4194 78.5478 92.8115 78.5478 92.4854 79.8339C92.4261 80.256 92.3622 80.5193 92.3622 80.5193C92.2069 81.1571 91.5926 81.5663 90.9574 81.465C90.3174 81.3596 89.8651 80.7789 89.9154 80.126C89.9195 80.0686 89.946 79.7739 90.0393 79.3681C90.1897 78.1484 90.0287 77.1098 89.6048 76.5838C89.4389 76.376 89.1317 76.0972 88.3851 76.0439C87.3869 75.9751 86.7045 76.1519 86.57 77.4354L86.6188 78.6525C86.6452 79.3095 86.168 79.8774 85.5223 79.953C84.8788 80.0425 84.2826 79.5921 84.1579 78.9453C84.1428 78.8701 84.0208 78.2062 84.0793 77.3761L84.048 76.5887C84.0434 76.4675 84.0559 76.3463 84.0854 76.2286C84.0854 76.2286 84.2902 75.2682 83.8515 74.6999C83.4843 74.2261 82.6938 74.1192 82.095 74.1124H82.0942C81.3015 74.1124 80.5708 74.31 80.3263 75.7099L80.3947 78.2081C80.4128 78.8599 79.9383 79.4172 79.2997 79.4943C78.6582 79.5823 78.0699 79.1421 77.9365 78.5043C77.9248 78.4431 77.6373 77.0406 77.8356 75.5527L77.5927 66.6683C77.5912 66.6286 77.5919 66.5889 77.5946 66.5493C77.6108 66.2387 77.5523 65.3009 77.0841 64.792C76.8412 64.529 76.4864 64.3968 75.9975 64.3911C74.2292 64.3911 74.1268 66.4333 74.1204 66.6664L73.9402 81.9891C73.933 82.5925 73.5042 83.1064 72.9178 83.2144C72.6324 83.2643 72.3385 83.2132 72.0867 83.0699C71.8349 82.9266 71.6408 82.7001 71.5379 82.4293C70.7535 80.3723 69.272 80.1494 68.6717 80.1494Z" fill="white"/>
<path fill-rule="evenodd" clip-rule="evenodd" d="M75.6975 104.568C75.4499 104.567 75.2081 104.493 75.0033 104.353C74.7985 104.214 74.64 104.017 74.5481 103.787C74.5341 103.754 73.8914 102.22 71.0773 97.3031C69.5157 94.5766 68.3728 91.8551 67.3651 89.4547C66.484 87.3551 65.6524 85.3726 64.6681 83.6705C63.9363 82.4032 63.8943 81.0109 64.551 79.849C65.3131 78.5017 66.9299 77.6312 68.6717 77.6312C69.7081 77.6312 70.6685 77.9225 71.496 78.4609L71.6362 66.6188C71.6792 64.965 72.637 61.8713 75.9578 61.8713C77.2096 61.8895 78.2063 62.3115 78.9159 63.0914C80.0966 64.3892 80.0958 66.2228 80.0785 66.6479L80.2232 71.9523C80.7605 71.7154 81.3748 71.5934 82.0572 71.5934C83.7986 71.6126 85.0455 72.1424 85.8261 73.1716C85.9948 73.393 86.1374 73.6331 86.2511 73.8872C86.898 73.5925 87.6446 73.4637 88.5586 73.5317C89.8054 73.6201 90.8328 74.1249 91.5306 74.9909C91.8544 75.3951 92.0856 75.847 92.2466 76.3152C92.9199 76.0121 93.7118 75.946 94.5605 76.1376C97.6307 76.8305 98.205 80.0742 98.08 81.748L98.0909 86.7634C98.0974 86.9735 98.2338 92.8242 94.8635 98.644C92.5647 102.615 92.0592 103.549 91.9492 103.761C91.9024 103.886 91.8336 104.005 91.7464 104.112C91.4951 104.417 91.1037 104.594 90.7149 104.566L75.6975 104.568ZM68.6717 80.1494C67.8317 80.1494 67.0243 80.542 66.7069 81.1019C66.4942 81.4794 66.5286 81.9037 66.8135 82.3983C67.8771 84.2395 68.7393 86.2938 69.6525 88.4689C70.6799 90.9162 71.7419 93.4469 73.2268 96.0385C75.0982 99.3075 76.0394 101.132 76.4864 102.05L90.0435 102.048C90.4538 101.3 91.2291 99.9434 92.72 97.3699C95.7314 92.1687 95.6086 86.8571 95.6067 86.8042L95.5953 81.7019C95.5953 81.6634 95.5969 81.6267 95.6003 81.589C95.6078 81.4885 95.7778 78.9929 94.0205 78.5961C93.8895 78.5654 93.7554 78.5492 93.6208 78.5478C93.4194 78.5478 92.8115 78.5478 92.4854 79.8339C92.4261 80.256 92.3622 80.5193 92.3622 80.5193C92.2069 81.1571 91.5926 81.5663 90.9574 81.465C90.3174 81.3596 89.8651 80.7789 89.9154 80.126C89.9195 80.0686 89.946 79.7739 90.0393 79.3681C90.1897 78.1484 90.0287 77.1097 89.6048 76.5838C89.4389 76.376 89.1317 76.0972 88.3851 76.0439C87.3869 75.9751 86.7045 76.1519 86.57 77.4354L86.6188 78.6524C86.6452 79.3095 86.168 79.8774 85.5223 79.9529C84.8788 80.0425 84.2826 79.5921 84.1579 78.9453C84.1428 78.8701 84.0208 78.2062 84.0793 77.3761L84.048 76.5887C84.0434 76.4675 84.056 76.3463 84.0854 76.2286C84.0854 76.2286 84.2902 75.2682 83.8515 74.6999C83.4843 74.2261 82.6938 74.1192 82.095 74.1124H82.0942C81.3015 74.1124 80.5708 74.31 80.3263 75.7099L80.3947 78.2081C80.4129 78.8599 79.9383 79.4172 79.2998 79.4943C78.6582 79.5823 78.0699 79.1421 77.9365 78.5043C77.9248 78.4431 77.6373 77.0406 77.8356 75.5527L77.5927 66.6683C77.5912 66.6286 77.5919 66.5889 77.5946 66.5493C77.6108 66.2387 77.5523 65.3009 77.0841 64.792C76.8412 64.529 76.4864 64.3968 75.9975 64.3911C74.2292 64.3911 74.1268 66.4333 74.1204 66.6664L73.9402 81.9891C73.933 82.5925 73.5042 83.1063 72.9178 83.2144C72.6324 83.2643 72.3385 83.2132 72.0867 83.0699C71.8349 82.9266 71.6408 82.7001 71.5379 82.4293C70.7535 80.3723 69.272 80.1494 68.6717 80.1494Z" fill="#0084FF"/>
<defs>
<linearGradient id="paint0_linear_18_178" x1="133.768" y1="64.7434" x2="133.768" y2="156.671" gradientUnits="userSpaceOnUse">
<stop stop-color="#EFF6FF"/>
<stop offset="1" stop-color="#C3DAF6"/>
</linearGradient>
<linearGradient id="paint1_linear_18_178" x1="122.804" y1="38.4734" x2="122.804" y2="136.26" gradientUnits="userSpaceOnUse">
<stop stop-color="#DFEFFF"/>
<stop offset="1" stop-color="#8CC3FC"/>
</linearGradient>
<linearGradient id="paint2_linear_18_178" x1="94.8964" y1="54.1758" x2="94.8964" y2="127.41" gradientUnits="userSpaceOnUse">
<stop stop-color="#CCE6FF"/>
<stop offset="1" stop-color="#1D98FF"/>
</linearGradient>
</defs>
</svg>
