<svg width="26" height="26" viewBox="0 0 26 26" fill="none" xmlns="http://www.w3.org/2000/svg">
<path d="M19.6625 9.90691L19.3375 19.7439C19.3098 20.5863 18.9549 21.3849 18.3481 21.97C17.7413 22.555 16.9304 22.8807 16.0875 22.8777H9.91249C9.07011 22.8807 8.25967 22.5555 7.65297 21.9711C7.04626 21.3867 6.691 20.589 6.66249 19.7471L6.33749 9.90691C6.33038 9.69143 6.40916 9.48194 6.55651 9.32454C6.70385 9.16714 6.90769 9.07471 7.12318 9.0676C7.33867 9.06049 7.54815 9.13927 7.70556 9.28662C7.86296 9.43396 7.95538 9.6378 7.96249 9.85329L8.28749 19.6927C8.30367 20.1127 8.482 20.5101 8.78501 20.8015C9.08802 21.0928 9.49214 21.2554 9.91249 21.2551H16.0875C16.5084 21.2554 16.913 21.0923 17.2161 20.8003C17.5192 20.5083 17.6971 20.11 17.7125 19.6894L18.0375 9.85329C18.0446 9.6378 18.137 9.43396 18.2944 9.28662C18.4518 9.13927 18.6613 9.06049 18.8768 9.0676C19.0923 9.07471 19.2961 9.16714 19.4435 9.32454C19.5908 9.48194 19.6696 9.69143 19.6625 9.90691ZM20.7374 6.63335C20.7374 6.84884 20.6518 7.0555 20.4995 7.20788C20.3471 7.36025 20.1404 7.44585 19.9249 7.44585H6.07587C5.86038 7.44585 5.65372 7.36025 5.50134 7.20788C5.34897 7.0555 5.26337 6.84884 5.26337 6.63335C5.26337 6.41786 5.34897 6.2112 5.50134 6.05883C5.65372 5.90645 5.86038 5.82085 6.07587 5.82085H8.59462C8.85206 5.82155 9.10054 5.72643 9.29173 5.55402C9.48291 5.38162 9.60311 5.14424 9.62893 4.8881C9.68889 4.28725 9.97039 3.73023 10.4186 3.32559C10.8668 2.92095 11.4496 2.69766 12.0534 2.69923H13.9466C14.5504 2.69766 15.1332 2.92095 15.5814 3.32559C16.0296 3.73023 16.3111 4.28725 16.3711 4.8881C16.3969 5.14424 16.5171 5.38162 16.7083 5.55402C16.8994 5.72643 17.1479 5.82155 17.4054 5.82085H19.9241C20.1396 5.82085 20.3463 5.90645 20.4986 6.05883C20.651 6.2112 20.7366 6.41786 20.7366 6.63335H20.7374ZM11.0394 5.82085H14.9622C14.8554 5.57689 14.7856 5.31839 14.755 5.05385C14.7349 4.85358 14.6411 4.6679 14.4919 4.5328C14.3427 4.39771 14.1486 4.3228 13.9474 4.3226H12.0542C11.853 4.3228 11.6589 4.39771 11.5097 4.5328C11.3605 4.6679 11.2667 4.85358 11.2466 5.05385C11.2158 5.31843 11.1465 5.57694 11.0394 5.82085ZM11.8576 18.131V11.2126C11.8576 10.9971 11.772 10.7905 11.6196 10.6381C11.4673 10.4857 11.2606 10.4001 11.0451 10.4001C10.8296 10.4001 10.623 10.4857 10.4706 10.6381C10.3182 10.7905 10.2326 10.9971 10.2326 11.2126V18.1343C10.2326 18.3498 10.3182 18.5564 10.4706 18.7088C10.623 18.8612 10.8296 18.9468 11.0451 18.9468C11.2606 18.9468 11.4673 18.8612 11.6196 18.7088C11.772 18.5564 11.8576 18.3498 11.8576 18.1343V18.131ZM15.769 18.131V11.2126C15.769 10.9971 15.6834 10.7905 15.531 10.6381C15.3786 10.4857 15.172 10.4001 14.9565 10.4001C14.741 10.4001 14.5343 10.4857 14.382 10.6381C14.2296 10.7905 14.144 10.9971 14.144 11.2126V18.1343C14.144 18.3498 14.2296 18.5564 14.382 18.7088C14.5343 18.8612 14.741 18.9468 14.9565 18.9468C15.172 18.9468 15.3786 18.8612 15.531 18.7088C15.6834 18.5564 15.769 18.3498 15.769 18.1343V18.131Z" fill="white"/>
</svg>
