<svg width="24" height="24" viewBox="0 0 24 24" fill="none" xmlns="http://www.w3.org/2000/svg">
<path d="M3.345 21.601L1.419 0H22.581L20.653 21.598L11.987 24L3.345 21.601Z" fill="#E44D26"/>
<path d="M12 22.1641L19.002 20.2221L20.65 1.76611H12V22.1641Z" fill="#F16529"/>
<path d="M12 9.77804H8.495L8.252 7.06504H12V4.41504H5.357L5.42 5.12604L6.071 12.426H12V9.77804ZM12 16.658L11.988 16.661L9.038 15.864L8.849 13.751H6.19L6.561 17.911L11.988 19.418L12 19.414V16.658Z" fill="#EBEBEB"/>
<path d="M11.991 9.77804V12.427H15.254L14.946 15.863L11.991 16.66V19.416L17.422 17.911L17.462 17.463L18.085 10.489L18.149 9.77704H17.435L11.991 9.77804ZM11.991 4.41504V7.06504H18.39L18.443 6.46904L18.564 5.12604L18.627 4.41504H11.991Z" fill="white"/>
<path d="M12 23.9961L11.987 24.0001H12V23.9961Z" fill="#DEDEDE"/>
<path d="M12 7.065H8.252L8.494 9.778H11.99H12V7.065ZM12 0H1.419L3.345 21.601L11.987 24L12 23.996V19.414L11.988 19.418L6.561 17.911L6.19 13.751H8.849L9.038 15.864L11.988 16.661L11.991 16.66L12 16.658V12.427H6.071L5.42 5.127L5.357 4.415H11.991H12V0Z" fill="#C64321"/>
<path d="M8.849 13.751H6.19L6.561 17.911L11.988 19.418L12 19.414L11.991 19.416V16.66L11.988 16.661L9.038 15.864L8.849 13.751ZM11.991 4.41504H5.357L5.42 5.12604L6.071 12.426H12H11.991V9.77804H8.495L8.252 7.06504H12H11.991V4.41504Z" fill="#CDCDCD"/>
<path d="M12 16.658L11.991 16.66V19.416L12 19.414V16.658ZM12 9.77804H11.991V12.427H12V9.77804ZM12 4.41504H11.991V7.06504H12V4.41504Z" fill="#DEDEDE"/>
</svg>
