<svg width="25" height="25" viewBox="0 0 25 25" fill="none" xmlns="http://www.w3.org/2000/svg">
<g clip-path="url(#clip0_12_247)">
<path d="M0 0H25V25H0V0Z" fill="#F7DF1E"/>
<path d="M6.57343 20.892L8.48652 19.7342C8.85566 20.3886 9.1914 20.9423 9.99677 20.9423C10.7687 20.9423 11.2556 20.6403 11.2556 19.4657V11.4776H13.6049V19.4989C13.6049 21.9322 12.1785 23.0398 10.0975 23.0398C8.21806 23.0398 7.12714 22.0665 6.57333 20.8918M14.881 20.6402L16.7938 19.5327C17.2975 20.3551 17.9519 20.9592 19.1098 20.9592C20.0833 20.9592 20.704 20.4725 20.704 19.8012C20.704 18.9957 20.0663 18.7104 18.9923 18.2406L18.4051 17.9887C16.7101 17.2673 15.5857 16.361 15.5857 14.4479C15.5857 12.6858 16.9282 11.3433 19.026 11.3433C20.5195 11.3433 21.5935 11.8636 22.3654 13.2229L20.5361 14.3977C20.1333 13.6761 19.6972 13.3908 19.0259 13.3908C18.3378 13.3908 17.9015 13.8271 17.9015 14.3977C17.9015 15.1024 18.3378 15.3879 19.3446 15.8242L19.9319 16.0759C21.929 16.9318 23.0533 17.8044 23.0533 19.7677C23.0533 21.8823 21.392 23.0401 19.1601 23.0401C16.9785 23.0401 15.5688 21.9997 14.8809 20.6403" fill="black"/>
</g>
<defs>
<clipPath id="clip0_12_247">
<rect width="25" height="25" fill="white"/>
</clipPath>
</defs>
</svg>
