<svg width="40" height="40" viewBox="0 0 40 40" fill="none" xmlns="http://www.w3.org/2000/svg">
<path d="M33.4167 18.3333H6.58333C5.70888 18.3333 5 19.0421 5 19.9166V20.0833C5 20.9577 5.70888 21.6666 6.58333 21.6666H33.4167C34.2911 21.6666 35 20.9577 35 20.0833V19.9166C35 19.0421 34.2911 18.3333 33.4167 18.3333Z" fill="white"/>
<path d="M33.4167 26.6667H6.58333C5.70888 26.6667 5 27.3756 5 28.2501V28.4167C5 29.2912 5.70888 30.0001 6.58333 30.0001H33.4167C34.2911 30.0001 35 29.2912 35 28.4167V28.2501C35 27.3756 34.2911 26.6667 33.4167 26.6667Z" fill="white"/>
<path d="M33.4167 10H6.58333C5.70888 10 5 10.7089 5 11.5833V11.75C5 12.6245 5.70888 13.3333 6.58333 13.3333H33.4167C34.2911 13.3333 35 12.6245 35 11.75V11.5833C35 10.7089 34.2911 10 33.4167 10Z" fill="white"/>
</svg>
