<svg width="20" height="21" viewBox="0 0 20 21" fill="none" xmlns="http://www.w3.org/2000/svg">
<path fill-rule="evenodd" clip-rule="evenodd" d="M0.600782 4.69502L8.56274 0.103222C8.86175 -0.0692254 9.24395 0.0333782 9.41639 0.332393C9.47115 0.427344 9.49998 0.535026 9.49998 0.644636V20.2771C9.49998 20.6223 9.22016 20.9021 8.87498 20.9021C8.75269 20.9021 8.6331 20.8663 8.531 20.799L6.19635 19.26C6.02091 19.1443 5.91533 18.9483 5.91533 18.7382V7.44293C5.91533 7.09775 5.63551 6.81793 5.29033 6.81793C5.17778 6.81793 5.06731 6.84832 4.9706 6.9059L1.23275 9.13128C0.93616 9.30787 0.552578 9.21058 0.375997 8.91398C0.318419 8.81727 0.288025 8.70681 0.288025 8.59426V5.23643C0.288025 5.01304 0.407262 4.80663 0.600782 4.69502Z" fill="#B08CBA"/>
<path fill-rule="evenodd" clip-rule="evenodd" d="M19.3372 4.69502L11.3753 0.103222C11.0762 -0.0692254 10.694 0.0333782 10.5216 0.332393C10.4668 0.427344 10.438 0.535026 10.438 0.644636V20.2771C10.438 20.6223 10.7178 20.9021 11.063 20.9021C11.1853 20.9021 11.3049 20.8663 11.407 20.799L13.7416 19.26C13.9171 19.1443 14.0227 18.9483 14.0227 18.7382V7.44293C14.0227 7.09775 14.3025 6.81793 14.6477 6.81793C14.7602 6.81793 14.8707 6.84832 14.9674 6.9059L18.7052 9.13128C19.0018 9.30787 19.3854 9.21058 19.562 8.91398C19.6196 8.81727 19.65 8.70681 19.65 8.59426V5.23643C19.65 5.01304 19.5307 4.80663 19.3372 4.69502Z" fill="#B08CBA"/>
<path fill-rule="evenodd" clip-rule="evenodd" d="M14.0107 8.76611L16.7562 10.3208C16.9521 10.4318 17.0732 10.6395 17.0732 10.8647V13.642C17.0732 13.9872 16.7934 14.267 16.4482 14.267C16.3375 14.267 16.2289 14.2376 16.1333 14.1819L14.0107 12.944V8.76611Z" fill="#B08CBA"/>
</svg>
