<svg width="25" height="25" viewBox="0 0 25 25" fill="none" xmlns="http://www.w3.org/2000/svg">
<g clip-path="url(#clip0_11_178)">
<path d="M0 12.5V25H25V0H0V12.5ZM15.1698 20.4437C15.2823 20.3802 15.7021 20.1375 16.099 19.9073L16.8177 19.4906L16.9688 19.7135C17.1792 20.0344 17.6385 20.475 17.9167 20.6219C18.7146 21.0427 19.8094 20.9833 20.349 20.499C20.4515 20.4128 20.534 20.3052 20.5905 20.1837C20.647 20.0622 20.6762 19.9298 20.676 19.7958L20.675 19.7469V19.749C20.675 19.4594 20.6385 19.3323 20.4875 19.1135C20.2937 18.8365 19.8969 18.6031 18.7698 18.1135C17.4802 17.5583 16.925 17.2135 16.4167 16.6656C16.1042 16.3104 15.8721 15.8918 15.7365 15.4385L15.7302 15.4156C15.6354 15.0625 15.6115 14.1771 15.6865 13.8208C15.9521 12.574 16.8927 11.7062 18.25 11.4479C18.6906 11.3646 19.7146 11.3958 20.1469 11.5031C20.7823 11.6615 21.2656 11.9448 21.7104 12.4052C21.9406 12.651 22.2823 13.099 22.3094 13.2073C22.3177 13.2385 21.2302 13.9677 20.5719 14.3771C20.5479 14.3927 20.4521 14.2896 20.3458 14.1312C20.0229 13.6625 19.6865 13.4604 19.1708 13.425C18.4125 13.3729 17.925 13.7698 17.9292 14.4323L17.9281 14.4708C17.9281 14.6281 17.9677 14.776 18.0375 14.9052L18.0354 14.9C18.2021 15.2448 18.5125 15.4521 19.4833 15.8719C21.274 16.6427 22.0396 17.15 22.5156 17.8719C23.0469 18.6771 23.1667 19.9635 22.8052 20.9198C22.4094 21.9594 21.425 22.6656 20.0396 22.899C19.6115 22.975 18.5958 22.9635 18.1354 22.8802C17.1312 22.701 16.1792 22.2052 15.5917 21.5542C15.3615 21.301 14.9125 20.6375 14.9406 20.5906C15.0128 20.5354 15.0895 20.4863 15.1698 20.4437ZM5.47708 12.5677C5.47708 12.0115 5.48854 11.5469 5.50417 11.5365C5.51667 11.5198 7.49688 11.5115 9.89688 11.5156L14.2667 11.5281L14.2781 12.5479L14.2865 13.5719H11.0312V22.8177H8.72917V13.5719H5.47708V12.5677Z" fill="#1677C7"/>
</g>
<defs>
<clipPath id="clip0_11_178">
<rect width="25" height="25" fill="white"/>
</clipPath>
</defs>
</svg>
